<svg xmlns="http://www.w3.org/2000/svg" width="35" height="35" viewBox="0 0 35 35"><path d="M17.5,0A17.63,17.63,0,0,0,0,17.767,17.721,17.721,0,0,0,13.257,35a2.432,2.432,0,0,1-.131-.844V31.135H10.938a2.979,2.979,0,0,1-2.757-1.511c-.569-1.066-.657-2.71-2.1-3.732-.438-.355-.088-.711.393-.667a4.6,4.6,0,0,1,2.362,1.821A2.225,2.225,0,0,0,11.155,28.2a17.381,17.381,0,0,0,2.45-.178,5.489,5.489,0,0,1,2.319-2.887c-5.862-.711-8.662-3.643-8.662-7.641a7.39,7.39,0,0,1,1.969-4.8c-.393-1.377-.919-4.22.176-5.33A6.18,6.18,0,0,1,14,9.544a13.289,13.289,0,0,1,4.243-.711,13.081,13.081,0,0,1,4.243.711A6.178,6.178,0,0,1,27.08,7.368c1.05,1.066.569,3.953.131,5.33a7.252,7.252,0,0,1,1.926,4.8c0,4-2.757,6.93-8.574,7.551a6.2,6.2,0,0,1,2.757,5.019v4.046c0,.133-.043.266-.043.4A17.681,17.681,0,0,0,35,17.767,17.63,17.63,0,0,0,17.5,0Z" fill="#fff"/></svg>