<svg xmlns="http://www.w3.org/2000/svg" width="36" height="36"><path d="M18 35.5a17.5 17.5 0 0 1-6.812-33.625 17.505 17.505 0 0 1 13.624 32.25A17.39 17.39 0 0 1 18 35.5zm3.549-17.676c1.132 0 1.706.81 1.706 2.407v5.69h3.381v-6.1a5.312 5.312 0 0 0-1.066-3.578 3.575 3.575 0 0 0-2.818-1.22 3.437 3.437 0 0 0-3.061 1.769v-1.517h-3.382c.021.343.031 1.41.031 3.171s-.01 4.282-.031 7.475h3.381v-5.945a2.407 2.407 0 0 1 .122-.86 2.316 2.316 0 0 1 .647-.917 1.616 1.616 0 0 1 1.09-.375zm-10.493-2.55v10.647h3.381V15.275zm1.721-5.132a1.914 1.914 0 0 0-1.386.518 1.762 1.762 0 0 0-.533 1.315 1.788 1.788 0 0 0 1.873 1.849h.015a1.917 1.917 0 0 0 1.4-.527 1.724 1.724 0 0 0 .518-1.275 1.79 1.79 0 0 0-1.889-1.88z" fill="#fff" stroke="#fff"/></svg>