<svg xmlns="http://www.w3.org/2000/svg" width="1920" height="886"><defs><linearGradient id="a" x1=".512" y1=".449" x2=".51" y2="1.285" gradientUnits="objectBoundingBox"><stop offset="0" stop-color="#3166f5"/><stop offset="1" stop-color="#19337b"/></linearGradient></defs><path data-name="Union 12" d="M0 886V69.472c2.635-.04 5.321-.06 7.988-.06 12.319 0 25.423.429 38.947 1.277 12.968.812 26.789 2.038 41.079 3.642 26.567 2.984 55.457 7.321 88.323 13.258C237.881 98.7 304.973 113.947 376 130.087h.016c24.632 5.6 50.1 11.384 75.961 17.14 52.133 11.6 95.192 20.681 135.528 28.574 51.216 10.021 98.267 18.175 143.853 24.926 25.313 3.749 50.484 7.1 74.815 9.956a2229.722 2229.722 0 0 0 76.615 7.675c26.352 2.171 52.7 3.833 78.323 4.94a1861.61 1861.61 0 0 0 79.939 1.747c26.788 0 53.665-.614 79.888-1.825 27.223-1.258 54.564-3.2 81.263-5.766a1580.53 1580.53 0 0 0 82.549-10.137c28.023-4.2 56.2-9.225 83.751-14.936a1512.619 1512.619 0 0 0 84.86-20.168 1510.614 1510.614 0 0 0 85.884-25.828 1532.362 1532.362 0 0 0 86.821-31.92c29.311-11.793 58.8-24.727 87.667-38.442 18.667-10.261 37.421-19.714 55.745-28.093 17.733-8.112 35.551-15.439 52.945-21.777q24.506-8.964 50.167-15.962 22.06-6 44.886-10.191H1920v886z" fill="url(#a)"/></svg>