<svg xmlns="http://www.w3.org/2000/svg" xmlns:xlink="http://www.w3.org/1999/xlink" width="1920" height="1000" viewBox="0 0 1920 1000"><defs><linearGradient id="a" x1="0.5" y1="0.327" x2="0.5" y2="1" gradientUnits="objectBoundingBox"><stop offset="0" stop-color="#31baf5"/><stop offset="1" stop-color="#3166f5"/></linearGradient></defs><g transform="translate(0 -653.215)"><path d="M205.234,686.657s267.281-68.244,430.648,27.713,421.148,93.258,421.148,93.258L691.057,894.062,369.969,833.921Z" transform="translate(82 18)" fill="#31baf5" opacity="0.105"/><path d="M1920,1000h-1.333l1.333-1.478V1000Zm-556.168-57.689h-.027c-34.205,0-68.315-.506-101.384-1.5-35-1.053-69.8-2.685-103.419-4.85-35.424-2.28-70.516-5.216-104.3-8.723-35.467-3.683-70.465-8.1-104.036-13.122-150.209-22.486-309.412-33.887-473.187-33.887-61.541,0-123.94,1.633-185.467,4.848-49.913,2.609-99.508,6.272-147.408,10.884C61.445,903.969,9.557,912.3,0,913.89V.091C6.429.03,12.9,0,19.24,0,39.371,0,59.6.3,79.38.906c20.8.632,41.657,1.609,62.009,2.9,21.324,1.357,42.679,3.1,63.467,5.184,21.721,2.178,43.428,4.781,64.519,7.743,21.976,3.086,43.9,6.646,65.161,10.581,22.1,4.091,44.1,8.7,65.393,13.7,22.084,5.187,44.025,10.94,65.215,17.1C487.077,64.5,508.823,71.49,529.775,78.9c117.705,41.645,254.815,62.758,407.519,62.758q56.637-.051,113.016-3.677c34.811-2.218,70.621-5.48,106.437-9.694,61.968-7.362,123-17.191,182.667-29.416,23.917-4.879,47.8-10.166,71-15.71,18.552-4.433,36.7-9.047,53.952-13.705,29.249-7.9,46.133-13.316,46.3-13.371.065-.019,6.621-1.91,18.335-4.706,10.8-2.577,28.277-6.464,50.267-10.353,24.64-4.36,49.723-7.818,75.1-10.353,30.663-3.086,61.716-4.66,92.832-4.706,14.043,0,28.084.345,41.733,1.023,14.533.723,29.007,1.845,43.039,3.334q22.18,2.352,43.851,6.039,22.513,3.84,44.177,9.14V696.523h0V903.283c-33.516,4.626-68.315,8.963-103.433,12.893-43.392,4.856-87.535,9.117-131.2,12.661-110.121,8.94-218.3,13.473-321.515,13.473Z" transform="translate(0 653.215)" fill="url(#a)"/></g></svg>