<?xml version="1.0" standalone="no"?>
<!DOCTYPE svg PUBLIC "-//W3C//DTD SVG 20010904//EN"
 "http://www.w3.org/TR/2001/REC-SVG-20010904/DTD/svg10.dtd">
<svg version="1.0" xmlns="http://www.w3.org/2000/svg"
 width="736.000000pt" height="736.000000pt" viewBox="0 0 736.000000 736.000000"
 preserveAspectRatio="xMidYMid meet">
<metadata>
Created by potrace 1.11, written by Peter Selinger 2001-2013
</metadata>
<g transform="translate(0.000000,736.000000) scale(0.100000,-0.100000)"
fill="#000000" stroke="none">
<path d="M1010 6805 c-142 -26 -250 -71 -355 -150 -172 -129 -298 -349 -321
-557 -8 -74 -9 -5104 -1 -5195 3 -35 9 -67 12 -73 4 -6 9 -22 11 -37 9 -51 67
-177 111 -240 83 -122 185 -209 318 -271 127 -60 206 -79 337 -80 307 -3 596
172 730 443 29 57 66 162 74 208 4 18 8 741 9 1607 2 866 4 1584 4 1594 1 13
199 -179 599 -578 532 -531 676 -666 712 -666 5 0 10 -4 10 -10 0 -5 9 -10 20
-10 11 0 20 -4 20 -10 0 -5 8 -10 18 -10 10 0 22 -4 28 -8 18 -16 89 -35 179
-50 52 -9 279 -7 330 2 123 22 237 72 340 148 33 25 322 307 641 627 320 319
583 581 585 581 2 0 4 -708 4 -1573 0 -864 3 -1592 7 -1617 7 -42 17 -83 34
-139 13 -43 65 -143 103 -200 86 -126 252 -251 396 -297 95 -31 169 -42 275
-39 63 2 127 6 142 8 89 16 204 65 301 129 54 37 177 150 177 164 0 3 11 19
24 35 24 29 110 189 102 189 -3 0 1 15 9 34 17 40 23 71 31 156 9 91 11 5046
2 5150 -12 140 -61 277 -142 395 -41 60 -182 205 -200 205 -5 0 -17 6 -25 14
-48 41 -204 105 -296 121 -176 30 -404 -9 -537 -92 -21 -13 -42 -23 -48 -23
-5 0 -10 -4 -10 -8 0 -4 -13 -16 -30 -25 -16 -10 -486 -474 -1045 -1032
l-1015 -1015 -1002 1002 c-551 550 -1024 1018 -1050 1039 -72 56 -220 128
-298 143 -14 3 -36 8 -50 11 -49 11 -206 11 -270 0z"/>
</g>
</svg>
