<svg class="tech__icon tech__icon-css" xmlns="http://www.w3.org/2000/svg" xmlns:xlink="http://www.w3.org/1999/xlink" width="97" height="138"><path class="css__path1" d="M87.905 127.228L48.499 138 9.093 127.228 0 27.216h97z" fill="#dbdbdb" /><path class="css__path2" d="M48.034 35.104v94.289l.09.025 32.2-8.736 7.431-85.576z" fill="#ccc" /><path class="css__path3" d="M26.282 12.492V6.527h8.5V0H19.908v18.447h14.873v-5.955zm23.787-5.965h5.942V0H41.137v6.527c1.99 2.038 3.028 3.013 5.906 5.96-1.682 0-5.906.006-5.906.006v5.954h14.874v-5.955zm21.081 0h5.941V0H62.217v6.527c1.99 2.038 3.028 3.013 5.906 5.96-1.682 0-5.906.006-5.906.006v5.954h14.875v-5.955z" fill="#dbdbdb" /><path class="css__path4" d="M48.44 60.285l-28.474 11.95.944 11.831 27.53-11.861 29.285-12.616 1.214-12.1z" fill="#fff" /><path class="css__path5" d="M171.677 251.605l.944 11.831 27.53-11.861v-11.919z" transform="translate(-151.497 -179.384)" fill="#d1d3d4" /><path class="css__path6" d="M299.667 196.167l-30.5 12.8v11.92l29.285-12.616z" transform="translate(-220.914 -148.67)" fill="#fff" /><path class="css__path7" d="M171.827 280.258l.929 11.831 41.548.136-.929 15.775-13.675 3.942-13.143-3.4-.8-9.791h-12.205l1.593 18.9 24.691 7.479 24.557-7.343 3.186-37.531z" transform="translate(-151.329 -208.094)" fill="#fff" /><path class="css__path8" d="M48.655 72.164H20.181l.944 11.831 27.53.089zm0 31.646l-.135.038-13.36-3.4-.81-9.791H21.935l1.619 18.9 25.1 7.479z" opacity=".05" /><path class="css__path9" d="M162.9 196.167h60.608l-1.2 12.1H164.36z" transform="translate(-145.008 -148.66)" fill="#fff" /><path class="css__path10" d="M48.68 47.507H17.643l1.484 12.1h29.555v-12.1z" opacity=".05" /></svg>