<svg xmlns="http://www.w3.org/2000/svg" width="97" height="138"><path class="html__path1" d="M97 27.165l-8.837 99.74-39.722 11.094L8.828 126.92 0 27.165h97z" fill="#dbdbdb"/><path class="html__path2" d="M48.035 129.502l32.406-8.984 7.624-85.409h-40.03z" fill="#ccc"/><path class="html__path3" d="M31.369 59.7h17.344V47.445H17.971l.293 3.289 3.013 33.785h27.436v-12.26H32.49zm2.764 30.945H21.826l1.717 19.25 25.111 6.97.056-.015v-12.755l-.054.014-13.654-3.687z" fill="#ebebeb"/><path class="html__path4" d="M9.111 0h6.158v6.155h5.633V0h6.158v18.64h-6.158V12.4h-5.633v6.24H9.111V0zm26.046 6.182h-5.42V0h17v6.182h-5.421V18.64h-6.158V6.182zM49.438 0h6.421l3.95 6.55L63.754 0h6.423v18.64h-6.133V9.4l-4.236 6.628h-.106L55.463 9.4v9.24h-6.025zm23.8 0h6.16v12.479h8.66v6.161H73.241V0z" fill="#dbdbdb"/><path class="html__path5" d="M48.245 84.514h15.1l-1.423 15.9-13.674 3.691v12.755l25.134-6.965.184-2.071 2.881-32.276.3-3.292h-28.5zm0-24.844v.03h29.611l.246-2.755.559-6.215.295-3.285H48.245v12.23z" fill="#fff"/></svg>