<svg xmlns="http://www.w3.org/2000/svg" xmlns:xlink="http://www.w3.org/1999/xlink" width="97" height="138">
  <defs>
    <linearGradient id="a" x1="1" y1=".5" x2="0" y2=".5" gradientUnits="objectBoundingBox">
      <stop offset="0" stop-color="#31b8f5" />
      <stop offset="1" stop-color="#3167f5" />
    </linearGradient>
    <linearGradient id="b" x1="1.309" y1=".38" x2="-1.324" y2=".389" gradientUnits="objectBoundingBox">
      <stop offset="0" stop-color="#2ba9e2" />
      <stop offset="1" stop-color="#2758d8" />
    </linearGradient>
    <linearGradient id="c" x1="1.165" y1=".5" x2="-.174" y2=".5" xlink:href="#a" />
  </defs>
  <path d="M97.445 70.766l-8.837 99.74L48.886 181.6 9.273 170.521.445 70.766h97z" transform="translate(-.445 -43.601)"
    fill="url(#a)" />
  <path d="M128 186.45l32.406-8.984 7.624-85.409H128z" transform="translate(-79.965 -56.948)" fill="url(#b)" />
  <path
    d="M31.369 59.7h17.344V47.445H17.971l.293 3.289 3.013 33.785h27.436v-12.26H32.49zm2.764 30.945H21.826l1.717 19.25 25.111 6.97.056-.015v-12.755l-.054.014-13.654-3.687z"
    fill="#ebebeb" />
  <path
    d="M24.18 0h6.158v6.155h5.633V0h6.158v18.64h-6.158V12.4h-5.633v6.24H24.18V0zm26.046 6.182h-5.42V0h17v6.182h-5.421V18.64h-6.158V6.182zM64.507 0h6.421l3.95 6.55L78.823 0h6.423v18.64h-6.133V9.4l-4.236 6.628h-.106L70.532 9.4v9.24h-6.025zm23.8 0h6.16v12.479h8.66v6.161H88.31V0z"
    transform="translate(-15.069)" fill="url(#c)" />
  <path
    d="M48.245 84.514h15.1l-1.423 15.9-13.674 3.691v12.755l25.134-6.965.184-2.071 2.881-32.276.3-3.292h-28.5zm0-24.844v.03h29.611l.246-2.755.559-6.215.295-3.285H48.245v12.23z"
    fill="#fff" />
</svg>