<svg class="tech__icon tech__icon-js" xmlns="http://www.w3.org/2000/svg" width="107" height="107"><path class="css__path1" d="M0 0h107v107H0z" fill="#dbdbdb"/><path class="css__path2" d="M27.648 89.308l8.238-4.986c1.59 2.818 3.035 5.2 6.5 5.2 3.324 0 5.421-1.3 5.421-6.359v-34.4h10.121v34.542c0 10.479-6.142 15.248-15.1 15.248-8.093 0-12.791-4.192-15.176-9.25m35.775-1.083l8.238-4.769c2.169 3.541 4.987 6.143 9.973 6.143 4.192 0 6.865-2.1 6.865-4.987 0-3.469-2.746-4.7-7.371-6.72l-2.529-1.085c-7.3-3.107-12.141-7.009-12.141-15.248 0-7.588 5.781-13.37 14.815-13.37 6.432 0 11.057 2.241 14.381 8.094l-7.878 5.059c-1.735-3.107-3.613-4.336-6.5-4.336-2.963 0-4.842 1.879-4.842 4.336 0 3.035 1.879 4.264 6.215 6.143l2.529 1.084c8.6 3.686 13.442 7.444 13.442 15.9 0 9.106-7.154 14.092-16.766 14.092-9.394 0-15.465-4.48-18.428-10.334" fill="#fff"/></svg>