<svg xmlns="http://www.w3.org/2000/svg" width="144" height="88"></svg>
  <defs>
    <linearGradient id="a" x1="2.894" y1="-.319" x2="-1.813" y2="-.312" gradientUnits="objectBoundingBox">
      <stop offset="0" stop-color="#31baf5" />
      <stop offset="1" stop-color="#3166f5" />
    </linearGradient>
  </defs>
  <path
    d="M213.043 222.8a2.861 2.861 0 0 1-1.37-.359l-4.338-2.577c-.653-.359-.326-.489-.13-.555a7.913 7.913 0 0 0 1.957-.881.3.3 0 0 1 .326.032l3.327 1.99a.414.414 0 0 0 .391 0l13.016-7.535a.375.375 0 0 0 .2-.359v-15.039a.375.375 0 0 0-.2-.359l-13.016-7.5a.413.413 0 0 0-.391 0l-13.016 7.5a.409.409 0 0 0-.2.359v15.038a.41.41 0 0 0 .2.359l3.556 2.055c1.925.979 3.132-.163 3.132-1.3v-14.847a.4.4 0 0 1 .391-.391h1.664a.4.4 0 0 1 .391.391v14.842c0 2.577-1.4 4.078-3.849 4.078a5.6 5.6 0 0 1-3-.816l-3.425-1.957a2.753 2.753 0 0 1-1.37-2.381V197.55a2.753 2.753 0 0 1 1.37-2.381l13.015-7.535a2.912 2.912 0 0 1 2.74 0l13.015 7.535a2.753 2.753 0 0 1 1.37 2.381v15.038a2.753 2.753 0 0 1-1.37 2.381l-13.015 7.531a3.337 3.337 0 0 1-1.37.294zm4.012-10.341c-5.708 0-6.883-2.61-6.883-4.828a.4.4 0 0 1 .391-.391h1.7a.335.335 0 0 1 .359.326c.261 1.729 1.011 2.577 4.469 2.577 2.74 0 3.915-.62 3.915-2.088 0-.848-.327-1.468-4.6-1.892-3.556-.359-5.774-1.142-5.774-3.98 0-2.642 2.218-4.208 5.937-4.208 4.175 0 6.231 1.435 6.492 4.567a.527.527 0 0 1-.1.294.4.4 0 0 1-.261.13H221a.382.382 0 0 1-.359-.294c-.391-1.794-1.4-2.381-4.078-2.381-3 0-3.36 1.044-3.36 1.827 0 .946.424 1.24 4.469 1.761 4.012.522 5.9 1.272 5.9 4.078-.025 2.869-2.372 4.5-6.516 4.5z"
    transform="translate(-141.824 -134.798)" fill="url(#a)" />
  <path
    d="M31.153 29.554a1.661 1.661 0 0 0-.846-1.435l-13.8-7.959a2 2 0 0 0-.749-.229h-.13a1.544 1.544 0 0 0-.749.229l-13.8 7.959a1.66 1.66 0 0 0-.846 1.435l.033 21.4a.811.811 0 0 0 .423.718.737.737 0 0 0 .814 0l8.2-4.7a1.66 1.66 0 0 0 .846-1.435V35.524a1.66 1.66 0 0 1 .846-1.435l3.483-2.023a1.575 1.575 0 0 1 .846-.229 1.4 1.4 0 0 1 .814.229l3.483 2.023a1.659 1.659 0 0 1 .846 1.435v10.014a1.66 1.66 0 0 0 .846 1.435l8.2 4.7a.793.793 0 0 0 .846 0 .811.811 0 0 0 .423-.718l-.033-21.4zM97.49.1a.893.893 0 0 0-.814 0 .85.85 0 0 0-.423.717v21.2a.586.586 0 0 1-.879.522l-3.45-1.99a1.675 1.675 0 0 0-1.66 0l-13.8 7.992a1.66 1.66 0 0 0-.846 1.435v15.953a1.661 1.661 0 0 0 .846 1.435l13.8 7.992a1.675 1.675 0 0 0 1.66 0l13.8-7.992a1.66 1.66 0 0 0 .846-1.435V6.165a1.674 1.674 0 0 0-.846-1.468L97.49.1zm-1.27 40.578a.374.374 0 0 1-.2.359l-4.72 2.74a.482.482 0 0 1-.423 0l-4.72-2.74a.409.409 0 0 1-.2-.359V35.2a.374.374 0 0 1 .2-.359l4.72-2.74a.482.482 0 0 1 .423 0l4.72 2.74a.409.409 0 0 1 .2.359v5.48zm47.2-5.611a1.63 1.63 0 0 0 .814-1.435V29.75a1.7 1.7 0 0 0-.814-1.435l-13.7-7.959a1.674 1.674 0 0 0-1.66 0l-13.8 7.992a1.66 1.66 0 0 0-.846 1.435v15.951a1.66 1.66 0 0 0 .846 1.435L127.956 55a1.614 1.614 0 0 0 1.628 0l8.3-4.632a.82.82 0 0 0 0-1.435l-13.866-7.992a.85.85 0 0 1-.423-.717V35.23a.811.811 0 0 1 .423-.718l4.329-2.479a.793.793 0 0 1 .846 0l4.329 2.479a.85.85 0 0 1 .423.718v3.914a.811.811 0 0 0 .423.717.793.793 0 0 0 .846 0l8.2-4.8z"
    transform="translate(-.231)" fill="url(#a)" />
  <path
    d="M449.158 121.462a.3.3 0 0 1 .326 0l2.642 1.533a.342.342 0 0 1 .163.294v3.066a.342.342 0 0 1-.163.294l-2.642 1.533a.3.3 0 0 1-.326 0l-2.642-1.533a.342.342 0 0 1-.163-.294v-3.066a.342.342 0 0 1 .163-.294z"
    transform="translate(-320.751 -87.3)" fill="url(#a)" />
  <path
    d="M16.674 1.29a1.681 1.681 0 0 0-1.664 0L1.278 9.216a1.629 1.629 0 0 0-.816 1.435v15.887a1.7 1.7 0 0 0 .816 1.435L15.011 35.9a1.681 1.681 0 0 0 1.664 0l13.733-7.927a1.629 1.629 0 0 0 .816-1.435V10.652a1.7 1.7 0 0 0-.816-1.435z"
    transform="translate(37.338 19.001)" fill="url(#a)" />
  <path
    d="M52.316 20.291l-13.765 7.924a1.692 1.692 0 0 0-.881 1.438V45.54a1.571 1.571 0 0 0 .424 1.044l15.462-26.488a1.864 1.864 0 0 0-1.24.2zm1.338 34.774a2.006 2.006 0 0 0 .391-.163l13.766-7.927a1.659 1.659 0 0 0 .848-1.435V29.653a1.662 1.662 0 0 0-.489-1.138l-14.516 26.55z"
    fill="rgba(0,0,0,0)" />
  <path
    d="M31.187 9.362l-13.8-7.927a2.265 2.265 0 0 0-.424-.163L1.5 27.76a1.717 1.717 0 0 0 .457.391l13.8 7.927a1.589 1.589 0 0 0 1.272.163L31.546 9.688a1.712 1.712 0 0 0-.359-.326z"
    transform="translate(36.592 18.856)" fill="url(#a)" />
  <g>
    <path
      d="M68.659 45.539V29.653a1.692 1.692 0 0 0-.881-1.435L53.98 20.292a1.441 1.441 0 0 0-.522-.2l15.1 25.8a.658.658 0 0 0 .1-.359zM38.551 28.218a1.693 1.693 0 0 0-.881 1.436v15.885a1.764 1.764 0 0 0 .881 1.435l13.8 7.927a1.536 1.536 0 0 0 1.076.2L38.649 28.185l-.1.033z"
      fill="rgba(0,0,0,0)" />
    <path d="M49.894.809l-.2.1h.261z" transform="translate(1.999 16.579)" fill-rule="evenodd" fill="url(#a)" />
    <path
      d="M32.547 37.206a1.856 1.856 0 0 0 .816-1.044L18.226 10.327a1.656 1.656 0 0 0-1.174.2l-13.7 7.894 14.776 26.94a2.274 2.274 0 0 0 .62-.2l13.8-7.959z"
      transform="translate(35.265 9.769)" fill-rule="evenodd" fill="url(#a)" />
    <path d="M111.051 104.3l-.1-.163v.228l.1-.065z" transform="translate(-41.967 -57.583)" fill-rule="evenodd"
      fill="url(#a)" />
    <path
      d="M70.209 102.9l-13.766 7.927a1.968 1.968 0 0 1-.62.2l.261.489 15.266-8.84v-.2l-.391-.653a1.516 1.516 0 0 1-.75 1.077z"
      transform="translate(-2.397 -55.924)" fill-rule="evenodd" fill="url(#a)" />
    <path
      d="M70.209 102.9l-13.766 7.927a1.968 1.968 0 0 1-.62.2l.261.489 15.266-8.84v-.2l-.391-.653a1.516 1.516 0 0 1-.75 1.077z"
      transform="translate(-2.397 -55.924)" fill-rule="evenodd" fill="url(#a)" />
  </g>
</svg>