<svg class="tech__icon tech__icon-sass" xmlns="http://www.w3.org/2000/svg" width="137" height="103"><path d="M117.936 59.145a28.156 28.156 0 0 0-12.417 2.9c-1.284-2.55-2.569-4.778-2.783-6.442a17.869 17.869 0 0 1-.241-5.422 43.546 43.546 0 0 1 1.632-5.851c-.027-.242-.295-1.423-3.051-1.449s-5.138.537-5.406 1.262a30.9 30.9 0 0 0-1.151 4.107c-.482 2.523-5.513 11.461-8.376 16.158a16.513 16.513 0 0 1-1.9-4.724 17.867 17.867 0 0 1-.241-5.422 43.568 43.568 0 0 1 1.632-5.851c-.027-.242-.294-1.423-3.05-1.449s-5.138.537-5.406 1.262-.562 2.435-1.148 4.104c-.562 1.664-7.252 16.587-8.992 20.479-.883 1.986-1.659 3.57-2.221 4.643s-.027.081-.08.188c-.482.913-.749 1.423-.749 1.423v.027c-.375.671-.776 1.315-.964 1.315-.134 0-.4-1.8.054-4.267.99-5.18 3.4-13.259 3.372-13.554 0-.134.455-1.557-1.552-2.281a2.434 2.434 0 0 0-2.81.483c-.161 0-.294.429-.294.429s2.168-9.1-4.148-9.1c-3.961 0-9.42 4.321-12.122 8.267-1.713.939-5.352 2.925-9.205 5.046-1.472.805-3 1.664-4.442 2.442l-.294-.323c-7.655-8.186-21.811-13.986-21.222-24.986.214-4 1.606-14.548 27.189-27.324 20.953-10.468 37.732-7.6 40.648-1.208 4.148 9.126-8.965 26.089-30.747 28.531-8.3.939-12.658-2.281-13.755-3.489-1.151-1.262-1.311-1.315-1.739-1.074-.7.376-.268 1.5 0 2.174.642 1.691 3.318 4.7 7.867 6.2 3.987 1.315 13.728 2.04 25.5-2.523 13.193-5.127 23.5-19.352 20.472-31.242C82.716.499 62.704-3.474 43.784 3.259 32.516 7.289 20.316 13.57 11.538 21.81 1.102 31.58-.557 40.115.138 43.659c2.435 12.642 19.8 20.882 26.76 26.975-.348.188-.669.376-.963.537-3.479 1.716-16.725 8.668-20.043 16.022-3.746 8.321.589 14.306 3.479 15.111 8.938 2.5 18.09-1.986 23.04-9.367 4.924-7.378 4.335-16.963 2.061-21.338l-.081-.161 2.725-1.61a162.25 162.25 0 0 1 5.031-2.845 33.506 33.506 0 0 0-1.793 9.126c-.375 4.724 1.552 10.844 4.094 13.259a4.521 4.521 0 0 0 3.291 1.074c2.944 0 4.282-2.443 5.753-5.368 1.82-3.57 3.425-7.7 3.425-7.7s-2.001 11.185 3.485 11.185c2.007 0 4.014-2.6 4.924-3.946v.027s.054-.081.161-.268q.168-.25.321-.51v-.054c.8-1.4 2.6-4.59 5.272-9.877 3.452-6.817 6.77-15.353 6.77-15.353a49.115 49.115 0 0 0 1.311 5.529 52.988 52.988 0 0 0 2.863 6.442 91.945 91.945 0 0 1-1.284 1.772l.027.027a75.867 75.867 0 0 1-2.114 2.684c-2.73 3.275-5.994 7.006-6.422 8.079-.508 1.261-.4 2.2.589 2.952a5.343 5.343 0 0 0 3.372.537 14.983 14.983 0 0 0 5.031-1.154 17.4 17.4 0 0 0 4.335-2.281 9.69 9.69 0 0 0 4.148-8.562 17.256 17.256 0 0 0-1.579-6.039c.241-.349.482-.7.723-1.074a113.391 113.391 0 0 0 7.493-13.018 49.118 49.118 0 0 0 1.311 5.529 38.823 38.823 0 0 0 2.435 5.529c-3.961 3.248-6.449 7.005-7.306 9.475-1.579 4.563-.348 6.63 1.98 7.113a7.105 7.105 0 0 0 3.666-.752 16.594 16.594 0 0 0 4.63-2.389c2.676-1.986 5.245-4.751 5.111-8.482a16.3 16.3 0 0 0-1.151-5.019 26 26 0 0 1 13.273-1.53c11.908 1.4 14.263 8.857 13.809 11.971a8.015 8.015 0 0 1-3.773 5.368c-.83.51-1.1.7-1.017 1.074.107.564.482.537 1.2.43a9.282 9.282 0 0 0 6.476-8.293c.321-7.382-6.663-15.434-19.053-15.354zM26.096 90.2c-3.934 4.321-9.473 5.959-11.828 4.559-2.542-1.476-1.552-7.837 3.291-12.427a62.978 62.978 0 0 1 9.286-6.952c.562-.349 1.418-.859 2.435-1.476a2.85 2.85 0 0 1 .268-.161c.187-.107.4-.242.615-.376A17.157 17.157 0 0 1 26.096 90.2zm28.767-19.621c-1.365 3.355-4.255 11.971-5.994 11.488-1.5-.4-2.408-6.925-.295-13.367a29.866 29.866 0 0 1 4.683-8.616c2.168-2.416 4.522-3.221 5.111-2.228.696 1.289-2.652 10.63-3.505 12.723zm23.736 11.38c-.589.3-1.124.51-1.365.349-.187-.107.241-.51.241-.51s2.97-3.194 4.148-4.67c.669-.859 1.472-1.852 2.328-2.979v.322c0 3.865-3.693 6.441-5.352 7.488zm18.3-4.187c-.428-.322-.374-1.315 1.07-4.429a16.591 16.591 0 0 1 4.068-5.261 6.658 6.658 0 0 1 .4 2.308c-.021 4.833-3.447 6.631-5.534 7.382z" class="sass__path" /></svg>